<svg role="img" viewBox="0 0 24 24" xmlns="http://www.w3.org/2000/svg"><title>LinkedIn</title><path d="M20.447 20.452h-3.554v-5.569c0-1.328-.475-2.236-1.986-2.236-1.081 0-1.722.728-2.004 1.431-.103.25-.129.599-.129.948v5.426h-3.554s.05-8.807 0-9.726h3.554v1.375c.428-.66 1.191-1.599 2.898-1.599 2.117 0 3.704 1.385 3.704 4.362v5.588zM5.337 8.855c-1.144 0-1.915-.758-1.915-1.704 0-.951.77-1.704 1.956-1.704 1.184 0 1.915.753 1.937 1.704 0 .946-.753 1.704-1.937 1.704zm1.581 11.597H3.635V9.126h3.283v11.326zM22.225 0H1.771C.792 0 0 .774 0 1.729v20.542C0 23.227.792 24 1.771 24h20.451C23.2 24 24 23.227 24 22.271V1.729C24 .774 23.2 0 22.225 0z"/></svg>